<svg width="150" height="250" viewBox="0 0 150 250" fill="none" xmlns="http://www.w3.org/2000/svg">
<path d="M60.1788 197.96C59.9012 197.96 59.8087 197.749 59.8087 197.539C65.0824 161.131 69.4309 124.198 73.6869 88.5267C76.2775 66.64 78.9606 43.9116 81.8288 21.3936C81.8288 21.1831 82.0138 21.0779 82.1989 21.0779C82.3839 21.0779 82.4764 21.2883 82.4764 21.4988C79.6083 44.0168 76.9252 66.64 74.3346 88.5267C70.0786 124.198 65.7301 161.131 60.4564 197.539C60.4564 197.749 60.3638 197.96 60.1788 197.96Z" fill="#212121"/>
<path d="M104.682 209.323C104.497 209.323 104.312 209.218 104.312 209.008C101.073 177.019 97.5575 144.715 93.7642 113.148C92.2838 100.942 90.5259 88.8414 88.768 77.1615C86.0849 59.2733 83.3093 40.7539 81.8289 21.603C81.8289 21.3926 81.9214 21.1821 82.1065 21.1821C82.2915 21.1821 82.4766 21.2874 82.4766 21.4978C83.9569 40.6486 86.7325 59.1681 89.4157 76.951C91.1736 88.6309 93.024 100.732 94.4118 113.043C98.1127 144.715 101.721 176.914 104.959 208.902C105.052 209.113 104.867 209.323 104.682 209.323Z" fill="#212121"/>
<path d="M103.016 241.208C98.7604 246.785 91.3587 248.994 80.4412 248.994C69.5236 248.994 59.6238 244.259 57.8659 241.208C47.7811 221.425 50.4642 207.115 57.8659 193.751H103.016C110.788 211.113 112.546 223.951 103.016 241.208Z" fill="#7C7671"/>
<g opacity="0.47">
<path opacity="0.47" d="M97.9277 245.627C97.1875 245.627 95.4296 247.1 94.5969 247.31C93.3016 247.731 91.9138 248.152 90.6185 248.363C87.2877 248.994 83.8644 249.204 80.5336 249.204C69.6161 249.204 59.7163 244.469 57.9584 241.418C47.8736 221.636 50.5567 207.325 57.9584 193.962C67.7657 193.962 77.573 193.962 87.3802 193.962C92.5614 193.962 97.9277 194.172 103.109 193.962C103.942 195.54 104.219 197.96 103.386 199.539C102.739 200.801 101.629 201.643 100.611 202.485C93.3941 207.641 84.6971 209.009 76.1851 210.271C85.5298 211.324 94.967 210.482 104.034 207.746C105.329 207.325 106.717 206.904 107.457 205.642C106.162 207.536 109.4 209.535 106.255 211.218C102.831 213.112 98.9454 213.954 95.2446 214.691C86.1775 216.48 76.8328 216.69 67.6732 216.901C68.2283 216.901 70.0787 224.687 70.5413 225.845C71.8366 229.001 73.502 232.053 75.2599 234.789C80.7187 243.628 88.8606 245.416 97.9277 245.627Z" fill="#7C7671"/>
</g>
<g opacity="0.69">
<path opacity="0.69" d="M103.109 241.207C101.814 243.312 100.241 244.995 98.4828 244.575C101.351 242.154 103.201 238.366 102.924 234.157C102.646 230.159 100.333 226.266 97.095 224.582C99.0379 228.16 100.981 231.737 102.924 235.315C97.28 230.79 93.1165 224.056 91.3586 216.48C92.0988 222.162 92.3764 227.949 91.2661 233.526C90.1558 239.103 87.4727 244.469 83.2167 247.521C89.1381 236.893 89.2306 222.898 84.8821 211.324C83.4018 207.43 81.4588 203.642 81.0888 199.433C77.1103 202.695 74.4272 207.536 72.5768 212.692C70.8189 217.848 69.8937 223.319 69.1535 228.791C68.7834 224.371 68.4133 220.057 68.1358 215.638C65.7302 221.741 61.3817 226.897 56.0154 229.738C62.5845 222.267 64.5274 210.903 70.0787 202.485C65.4526 208.693 58.5135 214.796 51.4819 216.795C51.5744 212.692 51.852 208.904 53.0548 204.8C53.5174 203.327 56.4781 193.646 57.8659 193.646H103.016C106.902 202.274 110.14 211.639 109.4 221.53C109.215 223.845 108.845 226.055 108.29 228.265C108.012 229.317 106.44 232.053 106.532 233C106.07 228.686 105.699 224.477 105.237 220.163C104.959 217.848 104.774 215.427 103.756 213.323C102.369 210.482 99.7781 208.693 97.28 207.009C98.9454 210.377 101.166 213.533 103.664 216.164C100.333 214.059 97.5576 211.008 95.5221 207.325C96.9099 210.903 98.5753 214.375 100.426 217.637C101.999 220.478 103.756 223.109 104.774 226.16C106.532 231.422 105.792 236.788 103.109 241.207Z" fill="#7C7671"/>
</g>
<path d="M80.4412 199.223C92.9091 199.223 103.016 196.773 103.016 193.751C103.016 190.729 92.9091 188.28 80.4412 188.28C67.9732 188.28 57.866 190.729 57.866 193.751C57.866 196.773 67.9732 199.223 80.4412 199.223Z" fill="#474340"/>
<path d="M80.4413 199.749C69.2462 199.749 57.4034 197.644 57.4034 193.751C57.4034 189.858 69.2462 187.753 80.4413 187.753C91.6363 187.753 103.479 189.858 103.479 193.751C103.479 197.644 91.6363 199.749 80.4413 199.749ZM80.4413 188.806C67.3958 188.806 58.3287 191.436 58.3287 193.751C58.3287 196.066 67.3958 198.697 80.4413 198.697C93.4868 198.697 102.554 196.066 102.554 193.751C102.554 191.436 93.4868 188.806 80.4413 188.806Z" fill="#7C7671"/>
<path d="M85.3448 210.167C80.9963 210.167 76.7403 209.851 72.6694 209.64C68.691 209.325 64.9901 208.799 61.5668 208.062C61.1042 207.957 60.5491 207.852 59.994 207.746C57.2183 207.22 54.1651 206.694 52.2222 204.169C52.1297 203.958 52.1297 203.748 52.2222 203.643C52.4072 203.537 52.5923 203.537 52.6848 203.643C54.4427 205.958 57.4034 206.484 60.0865 207.01C60.6416 207.115 61.1968 207.22 61.6594 207.325C65.0827 208.062 68.691 208.588 72.6694 208.904C78.9609 209.43 85.7149 209.746 92.3765 209.22C95.3371 209.009 98.2978 208.693 101.166 208.062L101.906 207.852C104.497 207.22 107.457 206.589 109.585 204.695C109.77 204.59 109.956 204.59 110.048 204.8C110.141 205.011 110.141 205.221 109.956 205.326C107.735 207.325 104.682 208.062 101.999 208.588L101.259 208.799C98.2978 209.535 95.3371 209.746 92.469 209.956C90.0634 210.061 87.7504 210.167 85.3448 210.167Z" fill="#EFE8CA"/>
<path d="M109.03 206.694C108.845 206.694 108.753 206.589 108.66 206.378C103.942 168.392 98.1127 129.775 92.3763 92.5257C88.9531 69.9024 85.3447 46.5427 82.1065 23.709C80.8112 30.8642 79.4234 37.9143 78.1281 44.9643C71.0039 82.845 64.2498 118.621 59.2537 159.554C58.421 166.183 57.2182 172.601 56.108 178.81C54.6276 186.807 53.0548 195.119 52.3146 203.958C52.3146 204.169 52.1296 204.379 51.9445 204.274C51.7595 204.274 51.5744 204.063 51.6669 203.853C52.4071 194.909 53.98 186.596 55.4603 178.599C56.5706 172.391 57.7734 165.972 58.606 159.343C63.6022 118.411 70.3563 82.6346 77.4804 44.6486C78.9607 36.9672 80.4411 29.1806 81.8289 21.2888L82.199 19.1843L82.4766 21.2888C85.8999 44.9643 89.5082 69.0607 93.1165 92.3152C98.8528 129.565 104.682 168.182 109.4 206.168C109.4 206.378 109.308 206.589 109.03 206.694C109.123 206.694 109.03 206.694 109.03 206.694Z" fill="#212121"/>
<path d="M82.3841 26.0238C82.1991 26.0238 82.014 25.9185 82.014 25.7081C81.7365 22.4461 81.5514 19.3946 81.6439 16.1327C81.7365 14.4491 81.829 12.8707 82.5692 11.5028C82.8467 10.9767 83.2168 10.5558 83.5869 10.1349C83.8645 9.81921 84.0495 9.50354 84.3271 9.18787C85.7149 7.08338 85.4373 4.03188 83.6794 2.55874C81.829 0.875147 79.516 1.0856 78.0356 2.97963C77.1104 4.1371 76.7403 5.92591 77.1104 7.39906C77.2954 8.13563 77.8506 9.18787 79.2384 9.50354C79.4234 9.50354 79.516 9.71399 79.516 9.92444C79.516 10.1349 79.3309 10.2401 79.1459 10.2401C77.8506 9.92444 76.8328 8.97742 76.4628 7.6095C76.0002 5.92591 76.3702 3.82143 77.4805 2.45351C79.2384 0.243801 82.014 0.033352 84.142 1.92739C86.1775 3.7162 86.4551 7.29383 84.8822 9.71399C84.6046 10.0297 84.4196 10.4506 84.142 10.7662C83.7719 11.1871 83.4944 11.608 83.2168 12.0289C82.5692 13.2916 82.4766 14.7648 82.3841 16.2379C82.2916 19.3946 82.3841 22.4461 82.7542 25.7081C82.7542 25.8133 82.6617 26.0238 82.3841 26.0238C82.4766 26.0238 82.4766 26.0238 82.3841 26.0238Z" fill="#212121"/>
<path d="M80.9962 21.394C80.6261 21.394 80.4411 20.7627 80.7187 20.447C80.9962 20.1313 81.4588 20.0261 81.8289 19.9209C81.9214 19.9209 82.199 20.0261 82.014 20.1313C82.6616 19.0791 83.9569 20.6574 83.4018 21.6044C83.3093 21.7097 83.2167 21.8149 83.2167 21.9201C83.2167 22.0253 83.4018 22.1306 83.4943 22.2358C83.9569 22.5515 84.1419 23.288 83.9569 23.8142C83.8644 24.3403 83.4943 24.8664 83.1242 25.3925C83.6793 25.3925 83.9569 26.0239 83.8644 26.55C83.7719 27.0761 83.2167 27.3918 82.7541 27.497C82.2915 27.6022 81.7364 27.497 81.1813 27.3918C80.7187 27.2866 80.256 27.1813 80.071 26.7604C79.7934 26.1291 80.4411 25.4977 80.9962 25.0768C80.5336 24.9716 80.1635 24.5507 80.1635 24.1298C80.1635 23.7089 80.5336 23.288 80.9962 23.1828C80.7187 23.0776 79.7934 21.394 80.9962 21.394Z" fill="#BF7949"/>
<path d="M82.2915 28.0227C81.9214 28.0227 81.5514 27.9175 81.1813 27.9175C80.6261 27.8122 80.071 27.6018 79.7935 27.0757C79.5159 26.5495 79.7009 25.9182 80.3486 25.2868C80.071 25.0764 79.886 24.6555 79.886 24.2346C79.886 23.8137 80.1635 23.3928 80.5336 23.0771C80.2561 22.6562 80.071 22.0249 80.2561 21.4988C80.2561 21.3935 80.3486 21.2883 80.4411 21.2883C80.2561 20.9727 80.3486 20.4465 80.5336 20.2361C80.8112 19.8152 81.3663 19.71 81.8289 19.6047C81.9214 19.6047 82.014 19.6047 82.1065 19.6047C82.2915 19.4995 82.4766 19.3943 82.7541 19.3943C83.2167 19.4995 83.6793 19.9204 83.8644 20.4465C84.0494 20.9727 84.0494 21.3935 83.7719 21.8144C84.4195 22.2353 84.6971 23.0771 84.512 23.9189C84.4195 24.4451 84.1419 24.7607 83.9569 25.1816C84.0494 25.2868 84.1419 25.3921 84.2345 25.4973C84.4195 25.813 84.512 26.2339 84.4195 26.6548C84.2345 27.2861 83.6793 27.707 83.0317 27.9175C82.6616 28.0227 82.4766 28.0227 82.2915 28.0227ZM80.9037 21.8144C80.8112 21.8144 80.7187 21.8144 80.7187 21.8144C80.6261 22.0249 80.9962 22.7615 81.1813 22.9719L81.7364 23.6033L80.9962 23.7085C80.7187 23.7085 80.5336 24.0242 80.4411 24.2346C80.4411 24.4451 80.7187 24.7607 80.9037 24.7607L81.9214 24.866L81.0888 25.4973C80.6261 25.813 80.1635 26.3391 80.3486 26.6548C80.4411 26.8652 80.9037 26.9704 81.2738 27.0757C81.8289 27.1809 82.2915 27.2861 82.6616 27.1809C83.1242 27.0757 83.4018 26.76 83.4943 26.4443C83.4943 26.3391 83.4943 26.1286 83.4018 26.0234C83.3093 25.9182 83.2167 25.813 83.0317 25.813H82.2915L82.7541 25.1816C83.0317 24.7607 83.4018 24.2346 83.4943 23.8137C83.5868 23.3928 83.4943 22.8667 83.1242 22.6562C82.9392 22.551 82.6616 22.3406 82.6616 22.0249C82.6616 21.7092 82.7541 21.4988 82.8466 21.3935C83.0317 21.1831 82.9392 20.8674 82.9392 20.7622C82.8467 20.4465 82.5691 20.2361 82.384 20.2361H82.2915L82.014 20.4465L80.8112 21.2883L80.9037 21.8144ZM80.9962 21.0779L81.4588 20.4465C81.2738 20.5518 81.0887 20.5518 80.9962 20.7622C80.9037 20.7622 80.8112 20.8674 80.9962 21.0779C80.9037 21.0779 80.9037 21.0779 80.9962 21.0779Z" fill="#BF7949"/>
<path d="M51.2044 190.173C43.8027 192.278 37.5112 197.644 31.9599 203.642C24.7433 211.323 18.3593 219.952 13.0856 229.422C15.3986 222.793 18.5443 216.585 22.4302 211.008C27.9815 202.906 35.1057 195.961 43.4326 191.752C52.0371 187.332 62.8621 185.228 71.4666 191.015C68.0433 188.7 64.1574 187.332 60.179 187.017C50.3717 185.964 40.9345 190.594 32.7926 196.382C24.4657 202.274 17.3416 210.376 11.9753 219.741C17.9892 209.219 25.2984 199.328 34.6431 192.594C40.7495 188.174 47.6886 185.228 54.9053 184.491C58.6061 184.07 62.2144 184.386 65.8228 185.228C69.2461 186.07 70.9114 187.227 73.8721 189.226C67.5807 177.652 57.7734 164.709 45.098 162.71C35.1057 161.131 25.0209 168.497 20.3023 178.704C23.9106 168.708 31.1273 159.237 40.657 158.29C45.7456 157.764 50.7418 159.764 55.1828 162.499C64.0649 167.866 71.6516 176.284 75.5375 186.806C74.3347 177.231 65.5452 167.971 58.7911 163.026C51.5745 157.87 43.155 155.028 34.6431 154.502C43.6176 153.24 52.8698 155.344 60.7341 160.29C68.5984 165.235 75.0749 173.022 78.9608 182.282C75.3525 170.812 69.8012 159.764 60.0865 153.766C50.0016 147.558 37.5112 147.137 26.6862 151.451C15.8612 155.765 6.6091 164.604 0.132599 175.337C1.79798 169.339 5.68388 164.499 10.0324 160.5C19.0995 152.082 30.3871 146.505 42.1373 145.874C53.8875 145.243 65.9153 150.083 74.0572 159.658C68.3208 149.241 57.5884 143.243 46.7634 142.191C36.0309 141.139 25.2059 144.611 15.3986 149.662C22.8003 143.559 31.5899 139.56 40.657 138.403C50.5568 137.14 61.1042 139.35 68.6909 146.611C73.8721 151.661 77.2954 158.817 79.4234 166.287C81.4589 173.758 82.2916 181.545 83.1243 189.332C83.6794 175.863 80.2561 162.394 74.2422 150.714C68.3208 139.034 59.9014 129.143 50.5567 120.936C60.9191 123.251 69.3386 132.51 74.1497 143.243C78.9608 153.976 80.9038 165.972 82.6617 177.862C80.6262 155.66 73.5946 134.089 62.3995 115.675C68.0433 121.778 73.317 128.617 76.9253 136.404C84.2345 152.082 84.6046 170.602 84.8822 188.385C85.0672 176.915 86.455 165.446 90.4335 154.923C94.4119 144.506 101.258 135.141 110.326 130.09C101.536 141.349 93.3941 153.976 90.711 168.708C93.9493 156.712 101.443 146.19 111.066 139.981C120.688 133.773 132.438 131.879 143.171 134.825C131.976 135.141 120.688 137.666 110.788 143.664C100.888 149.662 92.4689 159.343 88.6756 171.338C97.6501 156.923 113.009 148.084 128.552 148.189C119.578 151.24 110.418 154.397 102.369 159.974C94.3194 165.551 87.3803 173.864 84.7897 184.176C90.9886 170.917 103.664 161.868 116.802 161.342C106.902 164.814 98.0202 171.654 91.4512 180.703C95.152 176.389 99.3155 172.39 104.312 170.181C109.308 167.971 115.137 167.866 119.67 170.917C127.905 176.494 129.755 190.384 138.36 195.329C133.271 191.541 129.2 186.385 124.481 182.071C119.855 177.652 114.304 173.969 108.29 173.758C101.999 173.548 95.8922 177.546 92.2839 183.439C90.8961 185.649 90.1559 188.279 89.6933 190.91C89.4157 192.278 89.3232 193.646 89.0456 195.014C88.9531 195.75 88.9531 197.644 88.398 198.17C88.1204 198.486 87.6578 198.591 87.1952 198.697C85.9924 198.907 84.7897 199.012 83.5869 199.012C81.4589 199.012 79.3309 198.907 77.2029 198.591C76.3702 198.486 75.5375 198.381 74.7973 198.17C74.4273 198.065 73.9647 198.065 73.6871 197.75C73.0394 197.329 72.6694 195.855 72.0217 195.224C71.2815 194.382 70.4488 193.541 69.5236 192.909C67.7657 191.541 65.8228 190.594 63.7873 190.068C59.6238 188.805 55.2753 189.016 51.2044 190.173Z" fill="#4F7F36"/>
<path d="M56.5706 176.6C50.0941 174.285 43.0625 175.127 38.714 181.966C36.9561 184.807 35.9383 188.174 35.2907 191.542C33.8103 199.118 33.9954 207.115 35.7533 214.586C32.515 208.904 31.0347 201.959 31.6823 195.224C32.1449 190.7 33.6253 185.754 36.0309 182.177C37.9738 179.336 42.4148 174.6 45.5605 173.864C41.3971 174.811 37.4187 177.336 34.5505 180.914C31.4048 184.912 30.202 189.542 29.2768 194.698C28.4441 199.539 26.7787 207.325 28.9067 212.06C24.8358 203.116 25.8535 191.436 31.4973 183.65C27.7039 187.753 25.1133 193.33 24.2806 199.118C22.8928 193.541 25.1133 187.543 28.4441 183.124C35.1056 174.39 48.7063 169.865 58.1435 174.6C62.677 176.915 66.6554 180.493 69.8012 184.807C71.374 187.017 72.6693 189.332 73.7796 191.857C74.4272 193.33 75.7225 197.96 77.2954 198.381C74.4272 197.434 73.4095 193.962 72.0217 191.331C70.4488 188.385 68.6909 185.544 66.5629 183.124C63.8798 180.388 60.2714 177.968 56.5706 176.6Z" fill="#4F7F36"/>
<path d="M92.6539 173.127C91.081 177.441 89.6007 181.861 88.3054 186.386C88.0278 187.438 85.4372 198.802 85.3447 198.802C84.0494 198.802 82.7541 198.802 81.3663 198.802C81.7364 193.12 80.256 186.912 78.8682 181.44C76.5552 172.496 73.0394 163.868 68.0432 156.397C60.2714 144.611 49.3539 135.562 37.1411 130.617C44.7278 129.459 52.2221 133.668 57.9584 139.35C71.0039 151.977 78.7757 169.444 82.0139 188.385C81.1813 177.862 79.7934 166.393 77.2028 156.186C73.502 141.244 65.5451 128.197 57.0332 116.096C63.5097 119.463 68.5984 125.566 72.1142 132.616C75.7225 139.561 77.8505 147.453 79.4233 155.239C81.7364 166.077 83.1242 177.231 83.6793 188.385C83.1242 174.074 82.5691 159.869 82.1065 145.559C81.7364 136.614 81.4588 127.67 81.8289 118.726C83.5868 135.247 84.4195 151.872 84.512 168.497C84.512 171.338 84.512 174.285 85.2522 177.021C84.512 161.132 88.3054 145.032 95.7996 131.669C91.7287 149.767 87.6578 167.866 85.9924 186.491C87.1951 161.868 100.611 138.508 120.04 127.46C104.127 143.98 91.5436 161.763 86.3624 185.965C88.6755 175.021 92.0988 163.657 99.2229 155.45C106.069 147.453 115.969 141.876 125.499 139.666C123.001 140.192 120.133 142.717 117.82 144.085C115.044 145.769 112.268 147.663 109.678 149.662C105.977 152.398 102.184 154.923 99.1304 158.712C96.0772 162.5 94.3193 168.182 92.5614 172.917C92.7464 173.022 92.7464 173.022 92.6539 173.127Z" fill="#78AD5C"/>
<path d="M64.0648 195.961C61.8443 199.749 60.179 204.379 57.3108 207.01C53.98 210.167 49.1689 211.114 45.0055 209.43C47.9661 210.482 50.6493 212.376 53.795 211.64C60.179 210.167 62.492 204.695 65.7302 198.908C67.3031 196.067 69.3386 193.541 71.6516 191.542C73.2245 190.174 74.8899 189.017 76.8328 188.806C78.7757 188.596 80.9037 189.648 81.6439 191.647C79.0533 190.7 76.2777 192.173 74.2422 194.067C65.5452 202.17 66.1003 217.848 63.1396 229.107C65.1751 221.32 67.3031 213.429 70.8189 206.273C73.317 201.012 79.1458 189.858 85.7149 195.33C84.6046 191.332 82.014 186.596 77.9431 186.386C73.6871 186.07 69.1535 189.543 66.1928 192.805C65.5452 193.646 64.805 194.804 64.0648 195.961Z" fill="#78AD5C"/>
<path d="M78.6832 197.119C81.6439 193.331 84.5121 189.648 88.7681 188.28C93.4867 186.807 98.6678 187.017 103.201 189.016C107.457 190.91 111.713 194.172 115.137 197.75C121.706 204.484 126.332 213.323 129.755 222.583C131.605 227.529 133.548 233.316 137.989 235.315C136.046 235.631 134.196 234.158 132.716 232.579C126.424 226.055 122.446 217.322 117.635 209.43C112.824 201.538 106.44 193.962 98.1127 192.068C100.426 193.12 102.276 195.119 103.849 197.434C110.326 206.799 111.621 220.479 106.995 231.106C105.792 233.842 104.219 236.473 103.386 239.314C102.554 242.26 102.554 245.732 104.219 248.047C101.536 244.785 101.073 240.05 101.629 235.631C102.184 231.317 103.664 227.108 104.404 222.899C105.237 218.374 105.422 213.744 104.959 209.114C104.404 204.064 102.739 198.802 99.223 195.751C96.3548 193.225 92.4689 192.489 88.8606 193.015C85.3448 193.541 81.9215 195.225 78.6832 197.119Z" fill="#4F7F36"/>
<path d="M94.1344 207.642C95.8923 214.692 98.9455 223.215 105.144 226.792C108.66 228.792 112.916 228.476 116.895 227.845C113.286 228.371 110.696 230.054 106.81 229.002C103.387 228.055 100.056 225.74 97.7427 222.794C93.3017 217.007 90.526 208.799 88.3055 201.644C87.8429 200.171 87.1027 196.383 85.1598 196.593C84.6047 196.698 84.0495 197.119 83.6795 197.645C83.5869 197.856 83.1243 199.013 83.0318 199.013C81.5515 198.908 80.0711 198.908 78.4983 198.803C78.4057 198.803 78.3132 198.803 78.2207 198.697C78.0356 198.487 78.0356 197.014 78.0356 196.698C78.0356 195.962 78.2207 195.225 78.4057 194.594C78.8683 193.331 79.6085 192.279 80.5337 191.542C82.5692 189.964 85.1598 190.069 87.1953 191.437C90.6185 193.647 91.7288 198.487 92.7465 202.801C93.3942 204.38 93.7643 205.958 94.1344 207.642Z" fill="#2D5E2D"/>
<path d="M87.1952 212.271C89.3231 218.69 92.0063 225.109 91.9137 231.948C91.8212 237.42 89.8783 242.681 87.6578 247.522C92.0063 244.786 94.3193 238.998 94.5968 233.422C94.8744 227.845 93.4866 222.268 91.8212 217.007C89.4157 209.115 84.9746 198.592 90.0633 190.806C90.1558 190.595 90.3409 190.385 90.3409 190.174C90.3409 190.069 90.2484 189.964 90.2484 189.859C89.6007 188.491 87.8428 188.386 86.7325 189.122C85.6223 189.964 84.9746 191.437 84.6971 192.91C83.1242 199.118 85.2522 206.484 87.1952 212.271Z" fill="#437039"/>
<path d="M95.522 178.599C99.3154 176.284 103.571 175.337 107.55 177.757C111.343 180.072 113.656 184.702 117.08 187.648C120.318 190.489 124.574 191.963 128.645 191.542C124.481 192.804 119.855 192.173 116.154 189.753C112.361 187.333 109.4 183.545 105.699 181.019C102.184 178.599 98.2052 180.283 94.8744 182.598C90.8034 185.333 88.0278 189.963 83.4942 191.857C82.9391 192.068 82.1064 192.068 82.0139 191.437C85.5297 189.648 87.7502 185.754 90.5259 182.703C92.0987 181.23 93.7641 179.757 95.522 178.599Z" fill="#437039"/>
<path d="M51.9446 188.806C51.2044 189.437 50.5568 190.069 49.8166 190.7C44.7279 195.751 44.2653 201.643 42.8775 208.588C44.7279 199.749 50.5568 192.173 57.9585 188.911C61.9369 187.122 66.3779 186.702 70.5414 187.438C76.0001 188.385 79.1459 192.278 83.1243 196.172C83.2168 196.277 83.3093 196.382 83.4019 196.382C83.8645 196.593 84.4196 196.172 84.7897 195.751C87.4728 193.015 91.1737 192.278 94.3194 190.7C96.2623 189.753 103.109 185.965 105.052 187.017C99.6856 184.071 92.654 185.86 88.8606 191.121C89.9709 187.543 92.0989 184.492 94.2269 181.546C97.3726 177.126 100.611 172.707 103.849 168.392C95.8922 173.338 89.6008 181.651 86.4551 191.331C90.8961 177.021 95.0595 162.605 99.1305 148.084C91.7288 160.606 87.1952 175.337 86.085 190.49C87.7504 182.072 89.3232 173.548 88.9531 164.92C88.6756 159.238 87.4728 153.556 87.1027 147.874C86.5476 140.718 87.1952 133.458 88.8606 126.618C84.9747 134.721 85.0672 144.401 85.7149 153.556C86.1775 160.185 86.8251 166.919 86.27 173.654C85.9924 176.705 85.1598 179.651 84.9747 182.703C84.7897 185.965 84.9747 189.437 85.2523 192.699C84.9747 186.912 83.5869 181.23 81.0888 176.179C79.0534 172.075 74.7974 168.919 71.189 166.709C62.307 161.132 51.5745 160.185 41.7672 163.026C50.9269 161.658 60.5491 162.289 68.691 166.919C76.9254 171.654 83.4019 181.125 83.4019 191.542C80.8113 185.544 78.0356 179.125 73.0395 175.653C69.061 172.917 64.1574 172.286 59.6239 173.654C55.1828 174.916 51.2044 178.073 48.1512 182.072C53.9801 177.652 61.4743 175.653 68.2283 177.652C74.9824 179.651 80.9963 185.754 82.7542 193.436C79.2384 187.438 73.2245 183.545 66.9331 183.019C61.1967 182.808 56.2931 185.123 51.9446 188.806Z" fill="#79A836"/>
<path d="M73.4094 182.282C69.7086 183.334 66.5628 186.175 63.8797 189.332C61.1966 192.488 58.6985 195.856 55.7378 198.591C53.9799 200.17 51.9445 201.432 50.3716 203.221C57.0332 200.38 62.2143 194.277 68.2282 190.173C71.1889 188.174 74.5197 186.491 78.0355 186.701C81.4588 186.806 84.8821 189.016 86.0849 192.804C84.8821 185.438 80.3485 180.388 73.4094 182.282Z" fill="#78AD5C"/>
<path d="M96.5398 179.862C101.536 175.969 107.92 177.652 113.009 180.599C116.987 182.808 120.688 185.755 125.036 186.912C129.477 188.175 134.381 187.438 138.452 184.913C135.954 186.07 133.363 187.228 130.588 187.228C125.499 187.228 121.243 183.124 117.265 179.441C111.806 174.39 105.884 170.602 99.3154 175.022C93.8567 178.705 89.1381 185.649 88.3054 193.015C89.2306 184.702 90.5259 175.653 96.4473 169.971C100.426 166.078 105.699 163.973 110.881 163.973C113.564 163.973 116.247 164.604 118.837 164.394C121.798 164.184 124.574 163.026 127.349 161.763C129.57 160.816 131.79 159.869 133.271 157.765C130.125 160.501 125.962 161.343 121.983 161.448C118.005 161.553 114.026 160.922 110.048 161.237C105.422 161.553 100.888 163.131 96.9099 165.657C93.209 167.972 89.8783 171.339 88.1203 175.653C85.6223 181.966 86.8251 190.805 87.2877 197.645C87.1026 195.33 89.2306 190.805 89.9708 188.385C91.1736 185.018 93.9492 181.966 96.5398 179.862Z" fill="#78AD5C"/>
<path d="M47.966 152.293C41.9521 152.609 36.3083 155.555 30.6645 157.765C25.0207 160.079 18.6368 161.658 12.993 159.343C15.306 159.974 17.8041 159.448 20.1171 158.817C29.2767 156.081 37.7887 150.083 47.3184 149.452C52.1295 149.136 56.9406 150.294 61.4741 152.188C71.559 156.397 78.5906 165.025 81.1812 176.915C82.569 183.018 82.8466 189.332 83.1241 195.54C82.8466 189.437 81.1812 183.018 79.6083 177.231C78.128 171.97 76.7402 169.76 73.3169 166.182C66.1927 158.712 58.2359 151.767 47.966 152.293Z" fill="#79A836"/>
<path d="M67.3032 175.127C62.307 173.338 56.8483 174.811 51.5745 174.18C46.1158 173.549 40.7496 170.602 36.9562 166.078C42.785 169.445 49.169 171.444 55.6455 171.97C59.3464 172.286 63.1397 172.075 66.7481 173.128C74.4273 175.337 82.6617 185.228 81.3664 194.804C79.7936 192.384 79.331 188.596 78.0357 185.86C75.9077 181.019 71.9293 176.811 67.3032 175.127Z" fill="#437039"/>
<path d="M133.271 150.504C125.129 147.453 116.34 149.031 108.66 153.135C104.034 155.66 99.6857 159.027 95.7072 162.71C93.7643 164.499 92.1914 166.393 90.7111 168.603C89.4158 170.497 87.1027 173.233 86.5476 175.653C88.6756 166.919 88.1205 157.239 88.8607 148.295C89.5083 140.192 90.8036 131.88 93.5793 124.198C95.0596 120.2 97.0025 114.307 99.5931 110.94C94.2269 117.674 90.341 125.882 88.213 134.615C85.9925 143.77 86.6401 153.135 86.5476 162.605C86.4551 167.761 86.3626 173.864 84.1421 178.494C85.2523 165.025 83.1243 150.294 80.1637 137.246C78.9609 131.88 77.4805 126.618 75.075 121.778C72.6694 116.938 69.3386 112.624 65.0827 109.993C68.5985 114.518 71.9292 119.358 74.2423 124.83C77.4805 132.616 79.2384 141.771 80.6263 150.189C82.1066 159.343 83.0318 168.708 83.2169 177.968C82.1991 171.97 80.5337 165.972 78.0357 160.606C71.3741 146.506 57.9585 138.088 50.0942 124.724C52.1297 128.302 54.1651 131.985 56.5707 135.247C61.4743 141.665 67.8583 146.506 72.4844 153.345C75.5376 157.87 77.7581 163.131 79.6085 168.498C81.644 174.39 82.4767 180.178 82.9393 186.491C84.3271 181.125 87.2878 176.495 90.526 172.18C92.654 169.339 95.1521 167.025 97.5577 164.499C100.056 161.869 102.739 159.554 105.7 157.554C111.713 153.661 118.56 151.557 125.407 151.767C130.495 151.977 135.584 153.451 140.118 156.081C144.559 158.607 146.779 163.552 147.797 168.919C148.537 173.022 148.537 177.231 148.259 181.335C148.814 179.967 148.907 178.494 149 176.916C149.092 173.548 149.185 170.076 148.722 166.709C146.964 157.975 140.395 153.24 133.271 150.504Z" fill="#2D5E2D"/>
<path d="M81.5515 187.227C80.2562 185.438 78.2207 186.386 76.8329 187.543C74.9824 189.227 73.5021 191.541 72.6694 194.067C71.8367 196.592 71.6517 199.328 71.5591 201.959C71.4666 205.957 71.4666 209.956 71.6517 213.849C70.1713 207.641 69.9863 200.275 71.2816 193.962C71.9292 190.594 73.3171 187.333 75.5376 185.018C76.9254 183.65 78.6833 182.597 80.4412 182.913C83.0318 183.439 84.5121 186.386 85.4374 188.911C85.7149 185.333 87.1953 181.861 89.5083 179.441C91.5438 177.336 94.782 177.126 96.91 179.23C98.4829 180.809 99.038 183.229 99.6856 185.438C100.888 189.542 102.554 193.646 105.237 196.908C103.664 196.171 101.999 195.33 100.796 193.856C98.4829 190.805 99.038 185.754 96.6325 182.703C95.2446 181.019 92.9316 180.282 90.9886 180.914C88.028 181.966 87.1027 185.333 86.27 188.385C85.8074 190.068 85.9 191.857 85.4374 193.646C85.3448 193.962 83.957 198.907 84.1421 198.907C83.4944 198.802 82.9393 198.697 82.2916 198.697C83.1243 195.645 82.8468 192.383 82.1991 189.227C82.0141 188.49 81.9215 187.859 81.5515 187.227C81.644 187.438 81.5515 187.333 81.5515 187.227Z" fill="#79A836"/>
<path d="M93.3016 189.858C94.5969 193.015 95.2446 196.487 96.4474 199.749C97.6501 203.011 99.6856 206.062 102.646 207.115C99.5006 206.589 97.0025 203.853 95.3371 200.801C93.6717 197.75 92.654 194.277 91.4512 191.015C90.8036 189.332 89.8784 187.332 88.213 187.122C87.9354 187.122 87.6578 187.122 87.3803 187.227C87.1952 187.332 87.1027 187.648 86.9177 187.859C85.9925 189.858 85.4373 192.173 85.3448 194.488C84.5121 191.541 84.2345 182.282 89.0457 183.86C91.0811 184.597 92.469 187.859 93.3016 189.858Z" fill="#78AD5C"/>
<g opacity="0.74">
<g opacity="0.74">
<path opacity="0.74" d="M82.199 128.512C82.7541 132.406 82.9392 136.299 83.1242 140.192C83.3093 144.086 83.4018 147.979 83.1242 151.872C82.5691 147.979 82.384 144.086 82.199 140.192C82.1065 136.404 82.014 132.511 82.199 128.512Z" fill="#212121"/>
</g>
<g opacity="0.74">
<path opacity="0.74" d="M85.8999 144.717C85.5298 143.875 85.5298 143.034 85.5298 142.192C85.6223 141.35 85.7148 140.508 86.0849 139.667C86.455 140.508 86.455 141.35 86.455 142.192C86.3625 143.139 86.27 143.981 85.8999 144.717Z" fill="#212121"/>
</g>
<g opacity="0.74">
<path opacity="0.74" d="M71.5592 129.459C74.0573 132.616 76.0002 136.404 77.388 140.403C78.7759 144.401 79.6085 148.715 79.6085 152.924C78.8684 148.715 77.8506 144.717 76.5553 140.718C75.1675 136.93 73.5021 133.142 71.5592 129.459Z" fill="#212121"/>
</g>
<g opacity="0.74">
<path opacity="0.74" d="M75.0751 160.079C75.6302 160.395 76.0003 160.921 76.2779 161.447C76.5554 161.973 76.7405 162.605 76.7405 163.341C76.1854 163.025 75.8153 162.499 75.5377 161.973C75.2601 161.447 75.0751 160.816 75.0751 160.079Z" fill="#212121"/>
</g>
<g opacity="0.74">
<path opacity="0.74" d="M83.4944 191.436C83.957 192.172 84.1421 193.014 84.1421 193.856C84.1421 194.698 83.8645 195.54 83.4019 196.276C83.2169 195.434 83.2169 194.593 83.2169 193.856C83.3094 193.014 83.3094 192.278 83.4944 191.436Z" fill="#212121"/>
</g>
<g opacity="0.74">
<path opacity="0.74" d="M83.4946 180.177C87.0104 174.811 90.7112 169.655 94.9672 165.025C99.2232 160.395 104.034 156.396 109.493 153.555C114.859 150.82 120.873 149.241 126.795 149.767C128.275 149.873 129.755 150.188 131.143 150.504C132.623 150.925 134.011 151.346 135.399 151.977C136.787 152.608 138.082 153.345 139.377 154.292C140.58 155.239 141.783 156.186 142.893 157.343C141.783 156.291 140.58 155.344 139.285 154.502C137.99 153.661 136.694 153.029 135.307 152.398C133.919 151.872 132.531 151.346 131.143 151.03C129.755 150.714 128.275 150.504 126.795 150.399C120.966 149.978 115.229 151.556 109.956 154.292C104.682 157.028 99.8709 160.921 95.6149 165.446C91.1738 170.076 87.2879 175.126 83.4946 180.177Z" fill="#212121"/>
</g>
<g opacity="0.74">
<path opacity="0.74" d="M86.0851 173.759C86.6402 169.234 86.8253 164.709 87.0103 160.079C87.1028 155.555 87.1953 150.925 87.4729 146.295C87.843 141.77 88.3981 137.141 89.5084 132.721C90.0635 130.511 90.8037 128.302 91.6364 126.302C92.5616 124.198 93.5793 122.199 94.7821 120.41C92.6541 124.303 91.1738 128.512 90.156 132.932C89.1383 137.351 88.6757 141.876 88.3981 146.4C88.028 150.925 87.9355 155.555 87.6579 160.079C87.3804 164.709 87.0103 169.234 86.0851 173.759Z" fill="#212121"/>
</g>
<g opacity="0.74">
<path opacity="0.74" d="M90.7111 161.026C91.0811 158.711 91.7288 156.501 92.469 154.397C93.2091 152.187 94.2269 150.188 95.2446 148.189C96.3549 146.189 97.5576 144.295 98.9455 142.612C99.5931 141.77 100.333 140.928 101.073 140.086C101.814 139.35 102.554 138.508 103.386 137.877C103.016 138.298 102.739 138.719 102.369 139.139L101.351 140.507C100.703 141.349 100.056 142.296 99.4081 143.138C98.2053 144.927 97.0025 146.821 95.9848 148.82C94.8745 150.714 93.9493 152.819 93.0241 154.818C92.1914 156.712 91.4512 158.816 90.7111 161.026Z" fill="#212121"/>
</g>
<g opacity="0.74">
<path opacity="0.74" d="M99.8708 150.399C101.259 146.716 103.294 143.454 105.607 140.508C108.013 137.562 110.788 135.036 113.842 133.247C111.158 135.773 108.66 138.403 106.255 141.244C103.942 144.085 101.814 147.137 99.8708 150.399Z" fill="#212121"/>
</g>
<g opacity="0.74">
<path opacity="0.74" d="M107.272 144.296C109.308 142.402 111.528 140.824 113.842 139.561C116.155 138.193 118.653 137.141 121.151 136.299C123.649 135.457 126.239 134.931 128.83 134.615L130.773 134.51L132.716 134.405L134.659 134.51C135.306 134.615 135.954 134.615 136.602 134.721C135.954 134.721 135.306 134.826 134.659 134.826L132.716 134.931L130.773 135.142L128.83 135.457C126.332 135.878 123.741 136.51 121.336 137.351C118.838 138.193 116.432 139.14 114.119 140.298C111.806 141.455 109.493 142.823 107.272 144.296Z" fill="#212121"/>
</g>
<g opacity="0.74">
<path opacity="0.74" d="M61.0118 119.99C62.5846 121.147 64.065 122.62 65.3603 124.093C66.6556 125.672 67.8584 127.355 68.9686 129.144C71.0966 132.722 72.762 136.615 74.2423 140.613C75.6301 144.612 76.9254 148.611 78.0357 152.714C78.5908 154.819 79.0534 156.818 79.5161 158.923C79.9787 161.027 80.4413 163.131 80.7188 165.236C80.1637 163.131 79.6086 161.132 79.0534 159.133C78.4983 157.134 77.9432 155.029 77.2955 153.03C76.0928 149.031 74.7975 144.928 73.3171 141.034C71.9293 137.036 70.2639 133.248 68.321 129.67C66.378 126.093 63.9725 122.725 61.0118 119.99Z" fill="#212121"/>
</g>
<g opacity="0.74">
<path opacity="0.74" d="M69.8938 116.306C71.4667 117.885 72.8545 119.779 73.9648 121.883C75.075 123.988 75.9077 126.197 76.6479 128.512C77.3881 130.722 78.0357 133.142 78.5909 135.457C79.146 137.772 79.7011 140.087 80.1637 142.507C81.0889 147.242 81.8291 151.977 82.2917 156.818C82.4768 159.238 82.6618 161.658 82.8468 164.078C82.9394 166.498 83.0319 168.918 82.9394 171.338C82.5693 166.498 82.1992 161.763 81.5515 157.028C80.9039 152.293 80.1637 147.558 79.2385 142.928C78.3133 138.298 77.203 133.563 75.9077 129.038C75.2601 126.723 74.4274 124.514 73.5022 122.409C72.577 119.989 71.3742 117.99 69.8938 116.306Z" fill="#212121"/>
</g>
<g opacity="0.74">
<path opacity="0.74" d="M56.8483 125.355C59.6239 126.723 62.122 128.723 64.3425 131.143C66.4705 133.563 68.3209 136.404 69.6162 139.456C67.7658 136.72 65.8229 134.194 63.6949 131.879C61.5669 129.459 59.2539 127.355 56.8483 125.355Z" fill="#212121"/>
</g>
<g opacity="0.74">
<path opacity="0.74" d="M45.1906 132.51C47.6887 133.458 50.0942 134.72 52.4073 136.299C54.7203 137.772 56.8483 139.666 58.8838 141.665C60.9192 143.664 62.7697 145.874 64.3425 148.294L65.5453 150.083L66.6556 151.977L67.6733 153.976C67.9509 154.608 68.321 155.344 68.5985 155.976C68.2284 155.344 67.8584 154.713 67.4883 154.081L66.2855 152.293L65.0827 150.504L63.7874 148.82C62.0295 146.611 60.1791 144.401 58.2361 142.507C56.2932 140.508 54.1652 138.719 51.9447 137.035C49.9092 135.246 47.5962 133.773 45.1906 132.51Z" fill="#212121"/>
</g>
<g opacity="0.74">
<path opacity="0.74" d="M25.946 157.975C28.9067 157.66 31.6824 156.292 34.3655 154.924C37.0486 153.556 39.8243 152.188 42.7849 151.557C45.7456 150.925 48.7063 150.82 51.7595 150.715C53.2399 150.715 54.8127 150.715 56.2931 151.031C57.7734 151.346 59.2537 151.978 60.6416 152.609C63.3247 154.082 65.9153 155.766 68.4134 157.765C70.9114 159.764 73.2245 161.974 75.1674 164.499C77.1104 167.13 78.6832 170.076 79.701 173.338C80.7187 176.6 81.2738 179.862 81.7364 183.229C81.0888 179.967 80.3486 176.6 79.2384 173.549C78.1281 170.392 76.6478 167.551 74.6123 165.025C70.6339 160.08 65.5452 156.397 60.2715 153.556C58.9762 152.819 57.5884 152.293 56.2005 151.978C54.8127 151.662 53.3324 151.557 51.852 151.557C48.8913 151.662 45.9307 151.767 43.0625 152.293C40.1943 152.819 37.4187 154.082 34.6431 155.345C31.7749 156.713 28.9993 157.87 25.946 157.975Z" fill="#212121"/>
</g>
<g opacity="0.74">
<path opacity="0.74" d="M73.7796 189.963C74.0572 188.805 74.5198 187.753 75.1675 186.806C75.8151 185.859 76.6478 184.912 77.573 184.386C78.5908 183.86 79.7935 183.649 80.8113 184.07C81.829 184.491 82.7542 185.438 83.0318 186.596C82.4766 185.649 81.5514 185.123 80.6262 184.912C79.701 184.702 78.7758 184.912 77.9431 185.438C77.1104 185.859 76.3702 186.596 75.6301 187.438C74.9824 188.174 74.4273 189.121 73.7796 189.963Z" fill="#212121"/>
</g>
<g opacity="0.74">
<path opacity="0.74" d="M86.0851 187.017C86.4552 186.07 87.1028 185.228 88.028 184.912C88.4906 184.702 89.0458 184.807 89.5084 185.017C89.971 185.228 90.3411 185.649 90.6186 186.07C91.2663 186.911 91.6364 187.753 92.099 188.595C92.5616 189.437 92.9317 190.384 93.3018 191.226C94.7821 194.908 95.1522 198.907 96.9101 202.379C95.7073 200.906 94.9671 199.012 94.3195 197.118C93.6718 195.224 93.2092 193.33 92.4691 191.541C92.099 190.699 91.7289 189.752 91.2663 188.911C90.8962 188.069 90.4336 187.122 90.0635 186.385C89.6009 185.649 88.9532 185.123 88.1205 185.228C87.2879 185.543 86.5477 186.28 86.0851 187.017Z" fill="#212121"/>
</g>
<g opacity="0.74">
<path opacity="0.74" d="M90.1559 180.072C90.8035 179.441 91.6362 179.02 92.4689 178.704C93.3016 178.494 94.2268 178.388 95.152 178.809C96.0772 179.125 96.8174 179.756 97.3725 180.703C97.8351 181.545 98.2052 182.387 98.6678 183.334C99.0379 184.176 99.408 185.123 99.6856 186.07C99.9631 187.017 100.148 187.964 100.333 188.911C100.796 190.805 101.258 192.594 102.369 194.067C101.721 193.436 101.166 192.699 100.703 191.857C100.241 191.015 99.9631 190.068 99.6856 189.121C99.1304 187.227 98.6678 185.439 97.8351 183.755C97.465 182.913 97.095 181.966 96.6324 181.23C96.2623 180.493 95.6146 179.967 94.8744 179.546C93.3941 178.915 91.6362 179.23 90.1559 180.072Z" fill="#212121"/>
</g>
<g opacity="0.74">
<path opacity="0.74" d="M94.6895 188.911C94.8746 188.28 95.3372 187.859 95.7998 187.649C96.2624 187.438 96.8175 187.228 97.3727 187.543C97.0026 188.069 96.6325 188.385 96.1699 188.596C95.7073 188.701 95.3372 188.911 94.6895 188.911Z" fill="#212121"/>
</g>
<g opacity="0.74">
<path opacity="0.74" d="M97.9278 177.231C98.9455 176.494 100.056 175.968 101.166 175.547C102.276 175.127 103.479 174.811 104.682 174.706C105.885 174.6 107.18 174.706 108.29 175.127C109.493 175.547 110.603 176.179 111.621 176.915C113.656 178.389 115.507 179.967 117.45 181.545C118.375 182.387 119.393 183.124 120.318 183.86L123.186 186.175C122.076 185.544 121.058 184.912 120.04 184.281C119.023 183.545 118.005 182.913 116.987 182.177C114.952 180.809 113.009 179.125 111.066 177.757C109.123 176.284 106.902 175.442 104.589 175.547C102.461 175.547 100.148 176.284 97.9278 177.231Z" fill="#212121"/>
</g>
<g opacity="0.74">
<path opacity="0.74" d="M106.995 171.339C108.013 171.023 109.123 170.813 110.233 170.708C111.343 170.708 112.454 170.708 113.564 170.918C115.784 171.339 117.912 172.391 119.763 173.864C121.613 175.337 123.094 177.231 124.574 179.02L126.794 181.756C127.535 182.703 128.275 183.65 128.922 184.597C128.09 183.755 127.257 182.914 126.517 182.072L124.111 179.546C122.538 177.863 121.058 175.969 119.3 174.601C117.542 173.233 115.599 172.181 113.471 171.655C112.454 171.339 111.343 171.234 110.326 171.128C109.123 171.234 108.105 171.234 106.995 171.339Z" fill="#212121"/>
</g>
<g opacity="0.74">
<path opacity="0.74" d="M105.144 179.546C106.81 179.336 108.475 180.177 109.771 181.23C111.158 182.387 112.176 183.755 113.379 185.018C115.692 187.543 118.375 189.542 121.336 191.016C118.097 190.279 115.137 188.385 112.731 185.754C111.528 184.386 110.511 183.019 109.308 181.861C108.198 180.809 106.81 179.757 105.144 179.546Z" fill="#212121"/>
</g>
<g opacity="0.74">
<path opacity="0.74" d="M102.831 191.121C106.347 192.594 109.863 194.278 112.916 197.013C115.969 199.749 118.19 203.327 120.225 206.905C122.168 210.587 124.111 214.165 125.962 217.953L128.737 223.53C129.663 225.424 130.588 227.213 131.42 229.107C130.403 227.318 129.385 225.529 128.275 223.74L125.221 218.374L119.3 207.536C117.357 203.958 115.137 200.486 112.361 197.75C110.973 196.382 109.4 195.225 107.735 194.172C106.255 193.015 104.497 192.068 102.831 191.121Z" fill="#212121"/>
</g>
<g opacity="0.74">
<path opacity="0.74" d="M103.572 199.538C104.867 201.432 105.792 203.642 106.532 205.957C107.272 208.272 107.643 210.692 107.828 213.112C108.013 215.532 107.828 218.058 107.457 220.373L107.087 222.162L106.625 223.95L106.07 225.634C105.885 226.16 105.607 226.686 105.329 227.318C105.515 226.686 105.607 226.16 105.792 225.634L106.162 223.845L106.532 222.056L106.81 220.268C107.087 217.953 107.18 215.532 106.995 213.218C106.902 210.903 106.44 208.482 105.977 206.167C105.237 203.958 104.497 201.643 103.572 199.538Z" fill="#212121"/>
</g>
<g opacity="0.74">
<path opacity="0.74" d="M104.219 230.896C104.312 232.369 104.127 233.632 103.849 235C103.572 236.367 103.201 237.63 102.554 238.893C102.461 237.42 102.646 236.157 102.924 234.789C103.201 233.421 103.572 232.053 104.219 230.896Z" fill="#212121"/>
</g>
<g opacity="0.74">
<path opacity="0.74" d="M100.241 224.476C99.8707 224.056 99.5006 223.635 99.1305 223.109L98.1128 221.635L97.1876 220.162L96.2623 218.584C95.0596 216.479 94.1343 214.27 93.3017 211.955C92.469 209.64 91.7288 207.325 91.1737 204.905C90.8961 203.747 90.6185 202.485 90.341 201.327C90.0634 200.17 89.8784 198.907 89.6008 197.75C89.9709 198.907 90.341 200.064 90.7111 201.222L91.8213 204.694C92.5615 207.009 93.3016 209.324 94.1343 211.534C94.967 213.744 95.7997 215.953 96.8175 218.163C97.8352 220.373 98.9455 222.477 100.241 224.476Z" fill="#212121"/>
</g>
<g opacity="0.74">
<path opacity="0.74" d="M86.2701 197.224C86.0851 199.223 86.1776 201.222 86.4552 203.221C86.7328 205.221 87.1954 207.115 87.7505 209.009C88.8607 212.797 90.2486 216.48 91.5439 220.268C92.7466 224.056 93.7644 228.054 93.7644 232.158C93.7644 234.157 93.4868 236.262 93.0242 238.156C92.4691 240.05 91.6364 241.944 90.4336 243.417C90.9887 242.575 91.3588 241.734 91.7289 240.787C92.099 239.84 92.3766 238.892 92.5616 237.945C93.0242 236.051 93.1167 234.052 93.0242 232.053C92.9317 228.054 91.914 224.266 90.6187 220.478C89.4159 216.69 88.0281 213.007 87.0103 209.114C86.5477 207.115 86.1776 205.221 85.9926 203.116C85.9001 201.222 85.9001 199.223 86.2701 197.224Z" fill="#212121"/>
</g>
<g opacity="0.74">
<path opacity="0.74" d="M77.9431 193.33C76.9253 194.382 75.9076 195.329 74.9824 196.382C74.0572 197.434 73.132 198.486 72.1143 199.644C72.4843 198.065 73.317 196.802 74.3348 195.645C75.3525 194.593 76.5553 193.751 77.9431 193.33Z" fill="#212121"/>
</g>
<g opacity="0.74">
<path opacity="0.74" d="M69.8012 205.115C69.4311 206.904 68.9685 208.588 68.4134 210.271C67.8583 211.955 67.3031 213.638 66.4704 215.217C66.5629 213.323 67.0256 211.639 67.5807 209.85C68.1358 208.167 68.7835 206.588 69.8012 205.115Z" fill="#212121"/>
</g>
<g opacity="0.74">
<path opacity="0.74" d="M51.7595 211.113C53.6099 209.955 55.3679 208.693 57.0332 207.219C58.6061 205.746 60.0864 204.063 61.3817 202.169C62.677 200.38 63.6948 198.275 64.9901 196.276C65.6377 195.329 66.2854 194.382 67.0255 193.435C67.8582 192.593 68.6909 191.857 69.7087 191.436C68.876 192.067 68.0433 192.909 67.3956 193.856C66.748 194.698 66.1003 195.75 65.5452 196.697C64.4349 198.696 63.4172 200.906 62.1219 202.8C60.7341 204.694 59.2537 206.483 57.4958 207.851C55.6454 209.219 53.7025 210.271 51.7595 211.113Z" fill="#212121"/>
</g>
<g opacity="0.74">
<path opacity="0.74" d="M57.5884 198.065C58.8837 196.487 60.179 194.803 61.4743 193.33C62.7696 191.752 64.1574 190.279 65.6378 188.805C68.5984 185.964 72.1143 183.86 75.8151 182.913C72.2993 184.702 69.061 186.911 66.1929 189.647C64.7125 191.015 63.3247 192.488 61.9369 193.961C60.5491 195.329 59.0687 196.697 57.5884 198.065Z" fill="#212121"/>
</g>
<g opacity="0.74">
<path opacity="0.74" d="M47.8737 195.224C49.7241 191.857 52.5923 189.227 55.8305 187.438C59.0687 185.754 62.6771 184.912 66.1929 185.438C62.6771 185.754 59.3463 186.701 56.2931 188.385C53.0549 190.068 50.2792 192.383 47.8737 195.224Z" fill="#212121"/>
</g>
<g opacity="0.74">
<path opacity="0.74" d="M57.5884 175.968C58.236 175.232 59.0687 174.916 59.9014 174.811C60.7341 174.706 61.6593 174.916 62.307 175.442C61.4743 175.653 60.7341 175.758 59.9014 175.863C59.2538 175.968 58.5136 176.074 57.5884 175.968Z" fill="#212121"/>
</g>
<g opacity="0.74">
<path opacity="0.74" d="M47.3186 171.444C48.5214 171.865 49.8166 172.181 51.1119 172.286C52.4072 172.496 53.7025 172.496 54.9053 172.496C57.4959 172.496 60.0865 172.391 62.6771 172.496C65.2677 172.707 67.9508 173.128 70.3564 174.496C71.5592 175.127 72.6694 176.074 73.5946 177.021C74.5199 178.073 75.26 179.336 75.7226 180.704C75.075 179.441 74.2423 178.284 73.3171 177.337C72.3919 176.39 71.2816 175.653 70.0788 175.127C67.7658 173.969 65.2677 173.549 62.6771 173.443C60.0865 173.233 57.5885 173.443 54.9979 173.233C53.7026 173.128 52.4072 173.022 51.1119 172.707C49.7241 172.496 48.5214 172.075 47.3186 171.444Z" fill="#212121"/>
</g>
<g opacity="0.74">
<path opacity="0.74" d="M66.933 164.92C68.876 165.446 70.8189 166.183 72.5768 167.34C74.3347 168.498 76.0001 170.076 76.9253 172.181C75.445 170.602 73.8721 169.34 72.1142 168.287C70.4488 167.13 68.6909 166.183 66.933 164.92Z" fill="#212121"/>
</g>
<g opacity="0.74">
<path opacity="0.74" d="M25.5761 143.665C27.519 142.612 29.647 141.876 31.6825 141.244C33.8105 140.613 35.9385 140.192 38.0665 139.982C40.1945 139.771 42.415 139.666 44.543 139.771C45.6532 139.876 46.6709 139.982 47.7812 140.087C48.8915 140.297 49.9092 140.403 51.0194 140.718C50.4643 140.718 49.9092 140.718 49.4466 140.613H47.8737C46.7635 140.613 45.7457 140.613 44.6355 140.613C42.5075 140.718 40.3795 140.824 38.2515 141.034C36.1235 141.244 33.9955 141.665 31.8675 142.086C29.8321 142.507 27.7041 143.033 25.5761 143.665Z" fill="#212121"/>
</g>
<g opacity="0.74">
<path opacity="0.74" d="M62.6771 151.557C57.9585 149.557 52.9624 148.19 47.9662 147.769C42.9701 147.348 37.8814 147.558 32.9778 148.821C28.0741 149.978 23.263 151.978 18.822 154.713C16.6015 156.081 14.4735 157.66 12.438 159.343C10.4026 161.027 8.4596 162.921 6.70169 164.92C8.36707 162.711 10.2175 160.816 12.1605 158.922C14.1034 157.134 16.2314 155.45 18.4519 153.977C22.8929 151.031 27.704 149.031 32.7002 147.769C37.6963 146.611 42.8775 146.296 47.9662 146.927C53.1474 147.663 58.051 149.137 62.6771 151.557Z" fill="#212121"/>
</g>
<g opacity="0.74">
<path opacity="0.74" d="M29.5544 165.34C32.0524 162.499 35.4757 160.711 38.899 159.869C42.4148 159.132 46.1157 159.343 49.4465 160.816C46.0232 160.079 42.5073 160.079 39.084 160.921C35.7533 161.658 32.515 163.131 29.5544 165.34Z" fill="#212121"/>
</g>
<g opacity="0.74">
<path opacity="0.74" d="M51.3896 157.554C52.9624 157.554 54.4428 158.081 55.9231 158.712C57.3109 159.343 58.6988 160.185 59.9015 161.448C58.4212 160.922 57.0334 160.29 55.553 159.659C54.2577 159.028 52.8699 158.396 51.3896 157.554Z" fill="#212121"/>
</g>
<g opacity="0.74">
<path opacity="0.74" d="M55.553 164.815C57.0334 165.025 58.5137 165.762 59.809 166.498C61.1043 167.34 62.3996 168.287 63.4174 169.55C61.937 168.918 60.6417 168.182 59.3464 167.445C58.0511 166.604 56.7558 165.762 55.553 164.815Z" fill="#212121"/>
</g>
<g opacity="0.74">
<path opacity="0.74" d="M24.6508 192.173C25.4835 188.595 27.2414 185.438 29.4619 182.702C31.6824 180.072 34.458 177.862 37.5112 176.705C34.8281 178.599 32.33 180.808 30.1095 183.439C28.0741 186.07 26.2236 189.016 24.6508 192.173Z" fill="#212121"/>
</g>
<g opacity="0.74">
<path opacity="0.74" d="M27.4266 197.435C27.2415 196.067 27.5191 194.804 27.7967 193.541C28.1667 192.279 28.7219 191.121 29.462 190.174C29.277 191.542 28.9994 192.699 28.6294 193.857C28.3518 195.12 27.9817 196.277 27.4266 197.435Z" fill="#212121"/>
</g>
<g opacity="0.74">
<path opacity="0.74" d="M33.4403 206.904C32.8852 204.694 32.6076 202.379 32.5151 200.064C32.4226 197.749 32.7001 195.434 33.1627 193.225C33.6253 191.015 34.273 188.805 35.1982 186.701L35.9384 185.228L36.771 183.754L37.6963 182.386C37.9738 181.966 38.3439 181.545 38.714 181.124C38.4364 181.65 38.2514 182.071 37.9738 182.597L37.2337 184.07L36.586 185.543L35.9384 187.122C35.1982 189.226 34.5505 191.331 34.0879 193.54C33.6253 195.75 33.3478 197.96 33.2552 200.169C33.1627 202.379 33.2552 204.589 33.4403 206.904Z" fill="#212121"/>
</g>
<g opacity="0.74">
<path opacity="0.74" d="M17.7118 221.109C19.0996 217.532 21.0426 214.165 23.2631 211.113C25.4836 208.062 28.0742 205.326 30.9424 203.011C28.5368 205.852 26.2238 208.693 24.0033 211.744C21.7827 214.796 19.7473 217.847 17.7118 221.109Z" fill="#212121"/>
</g>
<g opacity="0.74">
<path opacity="0.74" d="M37.0486 197.434C37.4186 196.592 37.8812 195.96 38.4364 195.434C38.9915 194.908 39.6392 194.487 40.4718 194.277C40.1018 195.119 39.6392 195.75 39.084 196.276C38.5289 196.802 37.8812 197.223 37.0486 197.434Z" fill="#212121"/>
</g>
<g opacity="0.74">
<path opacity="0.74" d="M37.6964 191.436C39.8244 189.858 42.23 188.7 44.6355 187.753C47.0411 186.911 49.5392 186.28 52.1298 186.07C49.7242 187.017 47.3187 187.858 44.9131 188.7C42.5076 189.647 40.1945 190.594 37.6964 191.436Z" fill="#212121"/>
</g>
<g opacity="0.74">
<path opacity="0.74" d="M88.3056 179.651C89.6009 175.758 91.3588 171.97 94.042 169.024C95.3373 167.551 96.9101 166.288 98.5755 165.341C100.241 164.394 102.091 163.868 103.849 163.342C105.7 162.921 107.55 162.605 109.401 162.5C111.251 162.5 113.101 162.605 114.952 162.815C118.56 163.131 122.261 163.552 125.777 161.974C124.111 162.921 122.261 163.342 120.411 163.552C118.56 163.762 116.71 163.657 114.859 163.552C113.009 163.447 111.251 163.342 109.401 163.447C107.643 163.552 105.792 163.868 104.034 164.289C102.276 164.709 100.518 165.341 98.8531 166.183C97.1877 167.024 95.7073 168.182 94.412 169.55C93.1167 170.918 91.914 172.496 90.8962 174.285C89.971 175.863 89.1383 177.757 88.3056 179.651Z" fill="#212121"/>
</g>
<g opacity="0.74">
<path opacity="0.74" d="M94.4118 175.022C95.6146 172.707 97.3725 170.708 99.3155 169.129C101.258 167.551 103.479 166.393 105.884 165.867C103.757 167.13 101.814 168.498 99.8706 169.971C98.0202 171.549 96.2623 173.233 94.4118 175.022Z" fill="#212121"/>
</g>
<g opacity="0.74">
<path opacity="0.74" d="M96.2624 176.495C96.4474 175.758 96.8175 175.127 97.2802 174.706C97.7428 174.285 98.3904 173.969 99.0381 173.864C98.7605 174.601 98.2979 175.022 97.8353 175.443C97.3727 175.864 96.9101 176.284 96.2624 176.495Z" fill="#212121"/>
</g>
<g opacity="0.74">
<path opacity="0.74" d="M85.7149 183.229C85.3448 182.913 85.3448 182.597 85.3448 182.387C85.4373 182.071 85.5298 181.861 85.8999 181.65C86.27 181.966 86.27 182.282 86.27 182.492C86.1775 182.808 86.085 183.018 85.7149 183.229Z" fill="#212121"/>
</g>
<g opacity="0.74">
<path opacity="0.74" d="M92.4691 165.025C92.4691 162.71 93.2093 160.5 94.042 158.501C94.9672 156.502 96.0774 154.608 97.3727 152.924C96.6326 155.029 95.7074 157.028 94.8747 158.922C93.9494 160.921 93.2093 162.92 92.4691 165.025Z" fill="#212121"/>
</g>
<g opacity="0.74">
<path opacity="0.74" d="M97.2802 159.974C98.483 157.975 99.7783 156.186 101.259 154.608C102.739 152.924 104.312 151.346 105.977 149.978C107.643 148.61 109.4 147.347 111.343 146.295C112.269 145.769 113.194 145.243 114.212 144.822C115.229 144.401 116.155 143.98 117.172 143.665C116.71 143.98 116.247 144.191 115.784 144.506L114.397 145.348C113.471 145.874 112.546 146.506 111.714 147.032C109.956 148.189 108.198 149.452 106.625 150.925C104.959 152.293 103.387 153.766 101.814 155.239C100.241 156.607 98.7605 158.291 97.2802 159.974Z" fill="#212121"/>
</g>
<g opacity="0.74">
<path opacity="0.74" d="M88.9533 158.08C88.6757 155.029 88.9533 151.872 89.6009 148.821C90.2486 145.769 91.3588 142.823 92.9317 140.298C92.0065 143.244 91.1738 146.085 90.5261 149.031C89.786 152.083 89.3233 155.029 88.9533 158.08Z" fill="#212121"/>
</g>
</g>
</svg>
